<mxfile host="app.diagrams.net" modified="2021-04-28T04:19:42.056Z" agent="5.0 (Windows NT 10.0; Win64; x64) AppleWebKit/537.36 (KHTML, like Gecko) Chrome/90.0.4430.93 Safari/537.36" etag="YWKnK75Y1jF5KSt8zYW9" version="14.6.6" type="github">
  <diagram id="9sLFB3cR0Ghk0oRnNtTH" name="第 1 页">
    <mxGraphModel dx="1502" dy="675" grid="1" gridSize="10" guides="1" tooltips="1" connect="1" arrows="1" fold="1" page="1" pageScale="1" pageWidth="827" pageHeight="1169" math="0" shadow="0">
      <root>
        <mxCell id="0" />
        <mxCell id="1" parent="0" />
        <mxCell id="nCP3DKqkomvRBlRdrv7H-66" style="edgeStyle=orthogonalEdgeStyle;rounded=0;orthogonalLoop=1;jettySize=auto;html=1;" edge="1" parent="1" source="nCP3DKqkomvRBlRdrv7H-1" target="nCP3DKqkomvRBlRdrv7H-4">
          <mxGeometry relative="1" as="geometry" />
        </mxCell>
        <mxCell id="nCP3DKqkomvRBlRdrv7H-1" value="AbstractApplicationContext#&lt;br&gt;finishBeanFactoryInitialization(beanFactory)&lt;br&gt;完成这个此上下文的beanfactory的初始化" style="rounded=1;whiteSpace=wrap;html=1;arcSize=8;" vertex="1" parent="1">
          <mxGeometry x="170" y="230" width="260" height="60" as="geometry" />
        </mxCell>
        <mxCell id="nCP3DKqkomvRBlRdrv7H-23" style="edgeStyle=orthogonalEdgeStyle;rounded=0;orthogonalLoop=1;jettySize=auto;html=1;entryX=0.5;entryY=0;entryDx=0;entryDy=0;" edge="1" parent="1" source="nCP3DKqkomvRBlRdrv7H-2" target="nCP3DKqkomvRBlRdrv7H-10">
          <mxGeometry relative="1" as="geometry" />
        </mxCell>
        <mxCell id="nCP3DKqkomvRBlRdrv7H-2" value="sharedInstance = getSingleton(beanName, () -&amp;gt; {try {return createBean(beanName, mbd, args);}" style="rounded=1;whiteSpace=wrap;html=1;" vertex="1" parent="1">
          <mxGeometry x="470" y="740" width="240" height="50" as="geometry" />
        </mxCell>
        <mxCell id="nCP3DKqkomvRBlRdrv7H-65" style="edgeStyle=orthogonalEdgeStyle;rounded=0;orthogonalLoop=1;jettySize=auto;html=1;" edge="1" parent="1" source="nCP3DKqkomvRBlRdrv7H-4" target="nCP3DKqkomvRBlRdrv7H-5">
          <mxGeometry relative="1" as="geometry" />
        </mxCell>
        <mxCell id="nCP3DKqkomvRBlRdrv7H-4" value="DefaultListableBeanFactory#&lt;br&gt;preInstantiateSingletons()&lt;br&gt;实例化所有的单例对象" style="rounded=1;whiteSpace=wrap;html=1;arcSize=8;" vertex="1" parent="1">
          <mxGeometry x="170" y="330" width="260" height="60" as="geometry" />
        </mxCell>
        <mxCell id="nCP3DKqkomvRBlRdrv7H-64" style="edgeStyle=orthogonalEdgeStyle;rounded=0;orthogonalLoop=1;jettySize=auto;html=1;entryX=0.5;entryY=0;entryDx=0;entryDy=0;" edge="1" parent="1" source="nCP3DKqkomvRBlRdrv7H-5" target="nCP3DKqkomvRBlRdrv7H-6">
          <mxGeometry relative="1" as="geometry" />
        </mxCell>
        <mxCell id="nCP3DKqkomvRBlRdrv7H-5" value="AbstractBeanFactory#&lt;br&gt;getBean(beanName)&lt;br&gt;" style="rounded=1;whiteSpace=wrap;html=1;arcSize=8;" vertex="1" parent="1">
          <mxGeometry x="170" y="440" width="260" height="60" as="geometry" />
        </mxCell>
        <mxCell id="nCP3DKqkomvRBlRdrv7H-63" style="edgeStyle=orthogonalEdgeStyle;rounded=0;orthogonalLoop=1;jettySize=auto;html=1;" edge="1" parent="1" source="nCP3DKqkomvRBlRdrv7H-6" target="nCP3DKqkomvRBlRdrv7H-7">
          <mxGeometry relative="1" as="geometry" />
        </mxCell>
        <mxCell id="nCP3DKqkomvRBlRdrv7H-6" value="AbstractBeanFactory#&lt;br&gt;doGetBean()" style="rounded=1;whiteSpace=wrap;html=1;arcSize=8;" vertex="1" parent="1">
          <mxGeometry x="170" y="540" width="260" height="60" as="geometry" />
        </mxCell>
        <mxCell id="nCP3DKqkomvRBlRdrv7H-62" style="edgeStyle=orthogonalEdgeStyle;rounded=0;orthogonalLoop=1;jettySize=auto;html=1;entryX=0.5;entryY=0;entryDx=0;entryDy=0;" edge="1" parent="1" source="nCP3DKqkomvRBlRdrv7H-7" target="nCP3DKqkomvRBlRdrv7H-8">
          <mxGeometry relative="1" as="geometry" />
        </mxCell>
        <mxCell id="nCP3DKqkomvRBlRdrv7H-7" value="DefaultSingletonBeanRegistry#&lt;br&gt;sharedInstance = getSingleton(beanName)" style="rounded=1;whiteSpace=wrap;html=1;arcSize=8;" vertex="1" parent="1">
          <mxGeometry x="170" y="650" width="260" height="60" as="geometry" />
        </mxCell>
        <mxCell id="nCP3DKqkomvRBlRdrv7H-17" style="edgeStyle=orthogonalEdgeStyle;rounded=0;orthogonalLoop=1;jettySize=auto;html=1;entryX=0.5;entryY=0;entryDx=0;entryDy=0;startArrow=none;" edge="1" parent="1" source="nCP3DKqkomvRBlRdrv7H-18" target="nCP3DKqkomvRBlRdrv7H-15">
          <mxGeometry relative="1" as="geometry">
            <Array as="points">
              <mxPoint x="300" y="830" />
              <mxPoint x="300" y="830" />
            </Array>
          </mxGeometry>
        </mxCell>
        <mxCell id="nCP3DKqkomvRBlRdrv7H-21" style="edgeStyle=orthogonalEdgeStyle;rounded=0;orthogonalLoop=1;jettySize=auto;html=1;" edge="1" parent="1" source="nCP3DKqkomvRBlRdrv7H-8" target="nCP3DKqkomvRBlRdrv7H-2">
          <mxGeometry relative="1" as="geometry" />
        </mxCell>
        <mxCell id="nCP3DKqkomvRBlRdrv7H-22" value="false" style="edgeLabel;html=1;align=center;verticalAlign=middle;resizable=0;points=[];" vertex="1" connectable="0" parent="nCP3DKqkomvRBlRdrv7H-21">
          <mxGeometry x="-0.248" y="3" relative="1" as="geometry">
            <mxPoint as="offset" />
          </mxGeometry>
        </mxCell>
        <mxCell id="nCP3DKqkomvRBlRdrv7H-8" value="&lt;span&gt;sharedInstance != null&lt;/span&gt;" style="rhombus;whiteSpace=wrap;html=1;" vertex="1" parent="1">
          <mxGeometry x="215" y="740" width="170" height="50" as="geometry" />
        </mxCell>
        <mxCell id="nCP3DKqkomvRBlRdrv7H-24" style="edgeStyle=orthogonalEdgeStyle;rounded=0;orthogonalLoop=1;jettySize=auto;html=1;" edge="1" parent="1" source="nCP3DKqkomvRBlRdrv7H-10" target="nCP3DKqkomvRBlRdrv7H-11">
          <mxGeometry relative="1" as="geometry" />
        </mxCell>
        <mxCell id="nCP3DKqkomvRBlRdrv7H-10" value="singletonObject = this.singletonObjects.get(beanName);" style="rounded=1;whiteSpace=wrap;html=1;" vertex="1" parent="1">
          <mxGeometry x="470" y="850" width="240" height="50" as="geometry" />
        </mxCell>
        <mxCell id="nCP3DKqkomvRBlRdrv7H-25" style="edgeStyle=orthogonalEdgeStyle;rounded=0;orthogonalLoop=1;jettySize=auto;html=1;entryX=0.5;entryY=0;entryDx=0;entryDy=0;startArrow=none;" edge="1" parent="1" source="nCP3DKqkomvRBlRdrv7H-26" target="nCP3DKqkomvRBlRdrv7H-12">
          <mxGeometry relative="1" as="geometry">
            <Array as="points">
              <mxPoint x="590" y="1030" />
              <mxPoint x="590" y="1030" />
            </Array>
          </mxGeometry>
        </mxCell>
        <mxCell id="nCP3DKqkomvRBlRdrv7H-28" style="edgeStyle=orthogonalEdgeStyle;rounded=0;orthogonalLoop=1;jettySize=auto;html=1;entryX=0.5;entryY=0;entryDx=0;entryDy=0;" edge="1" parent="1" source="nCP3DKqkomvRBlRdrv7H-11" target="nCP3DKqkomvRBlRdrv7H-15">
          <mxGeometry relative="1" as="geometry" />
        </mxCell>
        <mxCell id="nCP3DKqkomvRBlRdrv7H-29" value="true" style="edgeLabel;html=1;align=center;verticalAlign=middle;resizable=0;points=[];" vertex="1" connectable="0" parent="nCP3DKqkomvRBlRdrv7H-28">
          <mxGeometry x="-0.3133" y="-2" relative="1" as="geometry">
            <mxPoint as="offset" />
          </mxGeometry>
        </mxCell>
        <mxCell id="nCP3DKqkomvRBlRdrv7H-11" value="singletonObject !&lt;span&gt;= null&lt;/span&gt;" style="rhombus;whiteSpace=wrap;html=1;" vertex="1" parent="1">
          <mxGeometry x="505" y="950" width="170" height="50" as="geometry" />
        </mxCell>
        <mxCell id="nCP3DKqkomvRBlRdrv7H-61" style="edgeStyle=orthogonalEdgeStyle;rounded=0;orthogonalLoop=1;jettySize=auto;html=1;entryX=0.5;entryY=0;entryDx=0;entryDy=0;" edge="1" parent="1" source="nCP3DKqkomvRBlRdrv7H-12" target="nCP3DKqkomvRBlRdrv7H-14">
          <mxGeometry relative="1" as="geometry" />
        </mxCell>
        <mxCell id="nCP3DKqkomvRBlRdrv7H-12" value="AbstractBeanFactory#&lt;br&gt;createBean" style="rounded=1;whiteSpace=wrap;html=1;" vertex="1" parent="1">
          <mxGeometry x="470" y="1070" width="240" height="50" as="geometry" />
        </mxCell>
        <mxCell id="nCP3DKqkomvRBlRdrv7H-14" value="AbstractAutowireCapableBeanFactory#&lt;br&gt;doCreateBean()" style="rounded=1;whiteSpace=wrap;html=1;" vertex="1" parent="1">
          <mxGeometry x="470" y="1160" width="240" height="50" as="geometry" />
        </mxCell>
        <mxCell id="nCP3DKqkomvRBlRdrv7H-20" style="edgeStyle=orthogonalEdgeStyle;rounded=0;orthogonalLoop=1;jettySize=auto;html=1;entryX=0.5;entryY=0;entryDx=0;entryDy=0;" edge="1" parent="1" source="nCP3DKqkomvRBlRdrv7H-15" target="nCP3DKqkomvRBlRdrv7H-16">
          <mxGeometry relative="1" as="geometry" />
        </mxCell>
        <mxCell id="nCP3DKqkomvRBlRdrv7H-15" value="AbstractBeanFactory#&lt;br&gt;getObjectForBeanInstance()" style="rounded=1;whiteSpace=wrap;html=1;" vertex="1" parent="1">
          <mxGeometry x="180" y="1059" width="240" height="50" as="geometry" />
        </mxCell>
        <mxCell id="nCP3DKqkomvRBlRdrv7H-16" value="return bean" style="rounded=1;whiteSpace=wrap;html=1;" vertex="1" parent="1">
          <mxGeometry x="180" y="1160" width="240" height="50" as="geometry" />
        </mxCell>
        <mxCell id="nCP3DKqkomvRBlRdrv7H-18" value="true" style="text;html=1;align=center;verticalAlign=middle;resizable=0;points=[];autosize=1;strokeColor=none;" vertex="1" parent="1">
          <mxGeometry x="280" y="820" width="40" height="20" as="geometry" />
        </mxCell>
        <mxCell id="nCP3DKqkomvRBlRdrv7H-19" value="" style="edgeStyle=orthogonalEdgeStyle;rounded=0;orthogonalLoop=1;jettySize=auto;html=1;entryX=0.5;entryY=0;entryDx=0;entryDy=0;endArrow=none;" edge="1" parent="1" source="nCP3DKqkomvRBlRdrv7H-8" target="nCP3DKqkomvRBlRdrv7H-18">
          <mxGeometry relative="1" as="geometry">
            <mxPoint x="300" y="790" as="sourcePoint" />
            <mxPoint x="300" y="870" as="targetPoint" />
            <Array as="points" />
          </mxGeometry>
        </mxCell>
        <mxCell id="nCP3DKqkomvRBlRdrv7H-26" value="false" style="text;html=1;align=center;verticalAlign=middle;resizable=0;points=[];autosize=1;strokeColor=none;" vertex="1" parent="1">
          <mxGeometry x="570" y="1020" width="40" height="20" as="geometry" />
        </mxCell>
        <mxCell id="nCP3DKqkomvRBlRdrv7H-27" value="" style="edgeStyle=orthogonalEdgeStyle;rounded=0;orthogonalLoop=1;jettySize=auto;html=1;entryX=0.5;entryY=0;entryDx=0;entryDy=0;endArrow=none;" edge="1" parent="1" source="nCP3DKqkomvRBlRdrv7H-11" target="nCP3DKqkomvRBlRdrv7H-26">
          <mxGeometry relative="1" as="geometry">
            <mxPoint x="590" y="1000" as="sourcePoint" />
            <mxPoint x="590" y="1060" as="targetPoint" />
            <Array as="points" />
          </mxGeometry>
        </mxCell>
        <mxCell id="nCP3DKqkomvRBlRdrv7H-52" style="edgeStyle=orthogonalEdgeStyle;rounded=0;orthogonalLoop=1;jettySize=auto;html=1;entryX=0;entryY=0.5;entryDx=0;entryDy=0;" edge="1" parent="1" source="nCP3DKqkomvRBlRdrv7H-30" target="nCP3DKqkomvRBlRdrv7H-38">
          <mxGeometry relative="1" as="geometry" />
        </mxCell>
        <mxCell id="nCP3DKqkomvRBlRdrv7H-55" style="edgeStyle=orthogonalEdgeStyle;rounded=0;orthogonalLoop=1;jettySize=auto;html=1;entryX=0.5;entryY=0;entryDx=0;entryDy=0;" edge="1" parent="1" source="nCP3DKqkomvRBlRdrv7H-30" target="nCP3DKqkomvRBlRdrv7H-31">
          <mxGeometry relative="1" as="geometry" />
        </mxCell>
        <mxCell id="nCP3DKqkomvRBlRdrv7H-30" value="AbstractAutowireCapableBeanFactory#&lt;br&gt;createBeanInstance" style="rounded=1;whiteSpace=wrap;html=1;" vertex="1" parent="1">
          <mxGeometry x="470" y="1250" width="240" height="50" as="geometry" />
        </mxCell>
        <mxCell id="nCP3DKqkomvRBlRdrv7H-56" style="edgeStyle=orthogonalEdgeStyle;rounded=0;orthogonalLoop=1;jettySize=auto;html=1;entryX=0.5;entryY=0;entryDx=0;entryDy=0;" edge="1" parent="1" source="nCP3DKqkomvRBlRdrv7H-31" target="nCP3DKqkomvRBlRdrv7H-32">
          <mxGeometry relative="1" as="geometry" />
        </mxCell>
        <mxCell id="nCP3DKqkomvRBlRdrv7H-31" value="DefaultSingletonBeanRegistry#&lt;br&gt;addSingletonFactory" style="rounded=1;whiteSpace=wrap;html=1;" vertex="1" parent="1">
          <mxGeometry x="470" y="1350" width="240" height="50" as="geometry" />
        </mxCell>
        <mxCell id="nCP3DKqkomvRBlRdrv7H-32" value="&lt;div&gt;&lt;div&gt;&lt;span&gt;DefaultSingletonBeanRegistry#&lt;/span&gt;&lt;/div&gt;&lt;span&gt;&lt;div&gt;&lt;span&gt;addSingletonFactory&lt;/span&gt;&lt;/div&gt;&lt;/span&gt;&lt;/div&gt;" style="rounded=1;whiteSpace=wrap;html=1;align=center;arcSize=9;" vertex="1" parent="1">
          <mxGeometry x="425" y="1440" width="330" height="120" as="geometry" />
        </mxCell>
        <mxCell id="nCP3DKqkomvRBlRdrv7H-57" style="edgeStyle=orthogonalEdgeStyle;rounded=0;orthogonalLoop=1;jettySize=auto;html=1;entryX=0.5;entryY=0;entryDx=0;entryDy=0;" edge="1" parent="1" source="nCP3DKqkomvRBlRdrv7H-33" target="nCP3DKqkomvRBlRdrv7H-34">
          <mxGeometry relative="1" as="geometry" />
        </mxCell>
        <mxCell id="nCP3DKqkomvRBlRdrv7H-33" value="&lt;div&gt;this.singletonFactories.put(beanName, singletonFactory);&lt;/div&gt;&lt;div&gt;this.earlySingletonObjects.remove(beanName);&lt;/div&gt;" style="rounded=1;whiteSpace=wrap;html=1;" vertex="1" parent="1">
          <mxGeometry x="430" y="1520" width="320" height="40" as="geometry" />
        </mxCell>
        <mxCell id="nCP3DKqkomvRBlRdrv7H-58" style="edgeStyle=orthogonalEdgeStyle;rounded=0;orthogonalLoop=1;jettySize=auto;html=1;entryX=0.5;entryY=0;entryDx=0;entryDy=0;" edge="1" parent="1" source="nCP3DKqkomvRBlRdrv7H-34" target="nCP3DKqkomvRBlRdrv7H-35">
          <mxGeometry relative="1" as="geometry" />
        </mxCell>
        <mxCell id="nCP3DKqkomvRBlRdrv7H-34" value="AbstractAutowireCapableBeanFactory#&lt;br&gt;populateBean" style="rounded=1;whiteSpace=wrap;html=1;" vertex="1" parent="1">
          <mxGeometry x="470" y="1590" width="240" height="50" as="geometry" />
        </mxCell>
        <mxCell id="nCP3DKqkomvRBlRdrv7H-59" style="edgeStyle=orthogonalEdgeStyle;rounded=0;orthogonalLoop=1;jettySize=auto;html=1;" edge="1" parent="1" source="nCP3DKqkomvRBlRdrv7H-35" target="nCP3DKqkomvRBlRdrv7H-36">
          <mxGeometry relative="1" as="geometry" />
        </mxCell>
        <mxCell id="nCP3DKqkomvRBlRdrv7H-35" value="AutowireAnnotationBeanPostProcessor#&lt;br&gt;postProcessPropertyValues" style="rounded=1;whiteSpace=wrap;html=1;" vertex="1" parent="1">
          <mxGeometry x="470" y="1680" width="240" height="50" as="geometry" />
        </mxCell>
        <mxCell id="nCP3DKqkomvRBlRdrv7H-60" style="edgeStyle=orthogonalEdgeStyle;rounded=0;orthogonalLoop=1;jettySize=auto;html=1;entryX=0.5;entryY=0;entryDx=0;entryDy=0;" edge="1" parent="1" source="nCP3DKqkomvRBlRdrv7H-36" target="nCP3DKqkomvRBlRdrv7H-37">
          <mxGeometry relative="1" as="geometry" />
        </mxCell>
        <mxCell id="nCP3DKqkomvRBlRdrv7H-36" value="CommonAnnotationBeanPostProcessor#&lt;br&gt;postProcessPropertyValues" style="rounded=1;whiteSpace=wrap;html=1;" vertex="1" parent="1">
          <mxGeometry x="470" y="1760" width="240" height="50" as="geometry" />
        </mxCell>
        <mxCell id="nCP3DKqkomvRBlRdrv7H-37" value="InjectMetadata#&lt;br&gt;inject" style="rounded=1;whiteSpace=wrap;html=1;" vertex="1" parent="1">
          <mxGeometry x="470" y="1850" width="240" height="50" as="geometry" />
        </mxCell>
        <mxCell id="nCP3DKqkomvRBlRdrv7H-43" style="edgeStyle=orthogonalEdgeStyle;rounded=0;orthogonalLoop=1;jettySize=auto;html=1;entryX=0;entryY=0.5;entryDx=0;entryDy=0;exitX=0.5;exitY=1;exitDx=0;exitDy=0;" edge="1" parent="1" source="nCP3DKqkomvRBlRdrv7H-38" target="nCP3DKqkomvRBlRdrv7H-40">
          <mxGeometry relative="1" as="geometry" />
        </mxCell>
        <mxCell id="nCP3DKqkomvRBlRdrv7H-67" value="factoryMethod" style="edgeLabel;html=1;align=center;verticalAlign=middle;resizable=0;points=[];" vertex="1" connectable="0" parent="nCP3DKqkomvRBlRdrv7H-43">
          <mxGeometry x="-0.1328" y="-1" relative="1" as="geometry">
            <mxPoint as="offset" />
          </mxGeometry>
        </mxCell>
        <mxCell id="nCP3DKqkomvRBlRdrv7H-46" style="edgeStyle=orthogonalEdgeStyle;rounded=0;orthogonalLoop=1;jettySize=auto;html=1;entryX=0.5;entryY=1;entryDx=0;entryDy=0;" edge="1" parent="1" source="nCP3DKqkomvRBlRdrv7H-38" target="nCP3DKqkomvRBlRdrv7H-39">
          <mxGeometry relative="1" as="geometry">
            <Array as="points">
              <mxPoint x="1015" y="1160" />
              <mxPoint x="755" y="1160" />
            </Array>
          </mxGeometry>
        </mxCell>
        <mxCell id="nCP3DKqkomvRBlRdrv7H-47" value="有特殊构造方法" style="edgeLabel;html=1;align=center;verticalAlign=middle;resizable=0;points=[];" vertex="1" connectable="0" parent="nCP3DKqkomvRBlRdrv7H-46">
          <mxGeometry x="0.1773" y="4" relative="1" as="geometry">
            <mxPoint x="-106" as="offset" />
          </mxGeometry>
        </mxCell>
        <mxCell id="nCP3DKqkomvRBlRdrv7H-48" style="edgeStyle=orthogonalEdgeStyle;rounded=0;orthogonalLoop=1;jettySize=auto;html=1;entryX=0;entryY=0.5;entryDx=0;entryDy=0;" edge="1" parent="1" source="nCP3DKqkomvRBlRdrv7H-38" target="nCP3DKqkomvRBlRdrv7H-41">
          <mxGeometry relative="1" as="geometry" />
        </mxCell>
        <mxCell id="nCP3DKqkomvRBlRdrv7H-49" value="无特殊构造方法" style="edgeLabel;html=1;align=center;verticalAlign=middle;resizable=0;points=[];" vertex="1" connectable="0" parent="nCP3DKqkomvRBlRdrv7H-48">
          <mxGeometry x="-0.2609" y="2" relative="1" as="geometry">
            <mxPoint as="offset" />
          </mxGeometry>
        </mxCell>
        <mxCell id="nCP3DKqkomvRBlRdrv7H-38" value="判断如何实例化对象" style="rhombus;whiteSpace=wrap;html=1;" vertex="1" parent="1">
          <mxGeometry x="780" y="1245" width="120" height="60" as="geometry" />
        </mxCell>
        <mxCell id="nCP3DKqkomvRBlRdrv7H-39" value="AbstractAutowireCapableBeanFactory#&lt;br&gt;autowireConstrutor" style="rounded=1;whiteSpace=wrap;html=1;" vertex="1" parent="1">
          <mxGeometry x="1030" y="1150" width="240" height="50" as="geometry" />
        </mxCell>
        <mxCell id="nCP3DKqkomvRBlRdrv7H-40" value="AbstractAutowireCapableBeanFactory#&lt;br&gt;insrantiateUsingFactoryMethod" style="rounded=1;whiteSpace=wrap;html=1;" vertex="1" parent="1">
          <mxGeometry x="1030" y="1340" width="240" height="50" as="geometry" />
        </mxCell>
        <mxCell id="nCP3DKqkomvRBlRdrv7H-41" value="AbstractAutowireCapableBeanFactory#&lt;br&gt;instantiateBean" style="rounded=1;whiteSpace=wrap;html=1;" vertex="1" parent="1">
          <mxGeometry x="1030" y="1245" width="240" height="50" as="geometry" />
        </mxCell>
      </root>
    </mxGraphModel>
  </diagram>
</mxfile>
